<svg width="1440" height="549" viewBox="0 0 1440 549" fill="none" xmlns="http://www.w3.org/2000/svg">
<path fill-rule="evenodd" clip-rule="evenodd" d="M553.48 316.821C724.337 378.603 908.091 339.24 1068.05 265.336C1228.04 191.416 1364.67 82.7385 1441.63 5.11195L1437.37 0.887695C1360.83 78.0945 1224.76 186.317 1065.53 259.889C906.259 333.477 724.263 372.197 555.52 311.179C215.209 188.121 44.8167 294.227 1.9397 364.436L7.06031 367.564C47.8499 300.773 214.591 194.278 553.48 316.821ZM1439.23 279.012C1376.61 284.72 1287.57 311.546 1198.33 350.029C1109.05 388.525 1019.24 438.824 955.092 491.685C875.285 557.452 773.122 552.531 671.261 518.591C569.432 484.662 468.724 421.988 392.613 373.47L392.6 373.462L392.587 373.454C338.56 339.782 253.938 306.084 175.893 315.095C136.775 319.611 99.2753 334.867 68.2285 366.24C37.2066 397.587 12.8355 444.815 -0.44458 512.926L5.44452 514.074C18.5644 446.785 42.5183 400.75 72.4933 370.46C102.443 340.195 138.612 325.439 176.582 321.055C252.706 312.266 335.925 345.212 389.399 378.537C465.453 427.018 566.74 490.089 669.364 524.283C771.961 558.468 876.715 564.048 958.908 496.315C1022.47 443.933 1111.74 393.899 1200.7 355.539C1289.7 317.165 1378.06 290.613 1439.77 284.987L1439.23 279.012Z" fill="url(#paint0_linear_860_47)" fill-opacity="0.13"/>
<defs>
<linearGradient id="paint0_linear_860_47" x1="1439.5" y1="5.46383" x2="4.50006" y2="5.46375" gradientUnits="userSpaceOnUse">
<stop stop-color="#343045"/>
<stop offset="0.348958" stop-color="#C0B7E8"/>
<stop offset="0.6875" stop-color="#8176AF"/>
<stop offset="1" stop-color="#343045"/>
</linearGradient>
</defs>
</svg>
