<svg width="390" height="300" viewBox="0 0 390 300" fill="none" xmlns="http://www.w3.org/2000/svg">
<path fill-rule="evenodd" clip-rule="evenodd" d="M133.718 173.414C196.398 207.555 263.59 185.611 321.433 145.354C379.343 105.05 428.716 45.8735 456.506 3.64917L451.494 0.350586C423.981 42.1543 375.106 100.689 318.006 140.429C260.839 180.216 196.259 200.647 136.588 168.145C74.9116 134.55 28.268 132.038 -5.09779 143.11C-38.3969 154.161 -57.9577 178.578 -65.7802 197.873L-60.2198 200.127C-52.9705 182.246 -34.6301 159.232 -3.20806 148.805C28.1472 138.4 73.0444 140.365 133.718 173.414ZM453.593 151.028C430.525 154.188 398.106 168.932 365.861 189.825C333.54 210.768 301.001 238.145 277.738 266.954C263.603 284.457 247.706 292.333 231.014 293.759C214.197 295.196 196.235 290.113 178.072 281.018C141.692 262.803 105.6 229.077 78.1191 202.753L78.1069 202.741L78.0946 202.729C68.2211 193.482 55.5506 184.23 41.7421 177.891C27.9503 171.559 12.8061 168.037 -1.88514 170.586C-31.7433 175.766 -57.4193 205.367 -66.9751 279.015L-61.025 279.787C-51.5478 206.746 -26.5773 180.959 -0.859497 176.497C12.2372 174.225 26.1134 177.318 39.2388 183.344C52.3417 189.359 64.4804 198.201 73.9805 207.097C101.351 233.315 138.068 267.699 175.385 286.383C194.073 295.74 213.183 301.305 231.525 299.737C249.993 298.159 267.342 289.378 282.406 270.723C305.178 242.523 337.195 215.55 369.124 194.861C401.129 174.122 432.656 159.952 454.407 156.972L453.593 151.028Z" fill="url(#paint0_linear_860_52)" fill-opacity="0.13"/>
<defs>
<linearGradient id="paint0_linear_860_52" x1="454" y1="2.83604" x2="-62.9999" y2="2.83602" gradientUnits="userSpaceOnUse">
<stop stop-color="#343045"/>
<stop offset="0.348958" stop-color="#C0B7E8"/>
<stop offset="0.6875" stop-color="#8176AF"/>
<stop offset="1" stop-color="#343045"/>
</linearGradient>
</defs>
</svg>
