<svg width="193" height="103" viewBox="0 0 193 103" fill="none" xmlns="http://www.w3.org/2000/svg">
<path fill-rule="evenodd" clip-rule="evenodd" d="M93.9123 46.9199C93.9123 46.9199 102.108 48.9756 100.772 41.2578C100.772 41.2578 106.586 53.5918 92.8291 56.2245C92.8291 56.2245 85.8606 63.5095 87.4854 70.0372C87.4854 70.0372 83.9109 66.3226 83.9109 57.5589C83.9109 57.5589 81.239 67.657 83.9109 71.0831C83.9109 71.0831 79.2893 71.8044 79.1449 58.8933C79.1449 58.8933 82.7194 52.5099 76.473 49.3723C71.8875 47.0642 61.9583 53.1951 57.0479 56.6212C59.7559 61.5621 67.7353 78.4041 59.0698 90.5579C59.0698 90.5579 61.7417 90.2333 64.8829 85.9416C64.8829 85.9416 65.7856 91.4234 56.1091 94.8495C56.1091 94.8495 54.0511 103.036 61.7778 101.702C61.7778 101.702 49.4295 107.508 46.7576 93.8397C46.7576 93.8397 39.4642 86.8793 32.9289 88.5022C32.9289 88.5022 36.6479 84.9318 45.4217 84.9318C45.4217 84.9318 35.312 82.263 31.8819 84.9318C31.8819 84.9318 31.1597 80.3156 44.0858 80.1713C44.0858 80.1713 50.4766 83.7417 53.6178 77.5025C55.9647 72.8502 49.6461 62.8243 46.2521 57.9556C41.1973 60.6965 24.4801 68.4864 12.3845 59.9031C12.3845 59.9031 12.7095 62.5719 17.0061 65.7095C17.0061 65.7095 11.518 66.6111 8.08788 56.9458C8.08788 56.9458 -0.108225 54.8901 1.2277 62.6079C1.2277 62.6079 -4.58539 50.2739 9.09886 47.6051C9.09886 47.6051 16.0674 40.3201 14.4426 33.7925C14.4426 33.7925 18.0171 37.5071 18.0171 46.2708C18.0171 46.2708 20.6889 36.1727 18.0171 32.7466C18.0171 32.7466 22.6387 32.0253 22.7831 44.9364C22.7831 44.9364 19.2086 51.3198 25.455 54.4574C30.3293 56.9098 41.1612 49.8411 45.7828 46.6314C43.2553 42.1233 34.7343 24.8124 43.5803 12.3702C43.5803 12.3702 40.9084 12.6948 37.7672 16.9864C37.7672 16.9864 36.8645 11.5046 46.541 8.07853C46.541 8.07853 48.599 -0.108098 40.8723 1.22629C40.8723 1.22629 53.2206 -4.58009 55.8925 9.08833C55.8925 9.08833 63.1859 16.0488 69.7212 14.4259C69.7212 14.4259 66.0022 17.9962 57.2284 17.9962C57.2284 17.9962 67.3382 20.665 70.7682 17.9962C70.7682 17.9962 71.4904 22.6125 58.5643 22.8289C58.5643 22.8289 52.1736 19.2585 49.0323 25.4976C46.6493 30.2581 53.3651 40.7529 56.6868 45.4413C62.6082 42.3758 78.17 35.8481 89.6157 43.9626C89.6157 43.9626 89.2907 41.2939 84.9941 38.1563C84.9941 38.1563 90.4822 37.2546 93.9123 46.9199ZM119.321 29H117V75H119.321V58.7131H126.251V75H128.572V29H126.251V56.405H119.321V29ZM145.733 29L139.98 58.7131V75H137.659V58.7131L131.873 29H133.998L138.836 53.7717L143.641 29H145.733ZM149.034 75H155.997C158.547 75 160.606 72.8869 160.573 70.3838V33.5838C160.573 31.0481 158.547 29 155.964 29H149.034V75ZM151.355 72.6919V31.3081V31.2756H155.964C157.239 31.2756 158.285 32.3484 158.285 33.5838V70.3838C158.285 71.6516 157.206 72.6919 155.964 72.6919H151.355ZM175.806 75H173.42L169.334 58.7131H166.555V75H164.234V29H171.164C173.747 29 175.773 31.0481 175.773 33.5838V54.0968C175.773 56.405 173.975 58.3555 171.687 58.6156L175.806 75ZM166.555 56.405H171.164C172.406 56.405 173.485 55.3647 173.485 54.0968V33.5838C173.485 32.3484 172.439 31.2756 171.164 31.2756H166.555V56.405ZM181.2 75L182.801 58.7131H189.274L190.875 75H192.967L188.358 29H183.749L179.108 75H181.2ZM185.58 31.3081H186.495L189.012 56.405H183.063L185.58 31.3081Z" fill="url(#paint0_linear_803_51)"/>
<defs>
<linearGradient id="paint0_linear_803_51" x1="186.037" y1="29" x2="186.037" y2="75" gradientUnits="userSpaceOnUse">
<stop stop-color="#C0B7E8"/>
<stop offset="1" stop-color="#8176AF"/>
</linearGradient>
</defs>
</svg>
