<svg width="736" height="846" viewBox="0 0 736 846" fill="none" xmlns="http://www.w3.org/2000/svg">
<path fill-rule="evenodd" clip-rule="evenodd" d="M222.194 -0.0702515C220.548 70.2288 229.071 178.903 260.04 276.579C282.759 348.236 317.734 414.494 370.082 455.036C337.869 463.584 306.164 473.766 275.686 485.797C121.677 546.59 -1.72138 654.955 0.500174 838.536L6.49975 838.464C4.32128 658.445 125.006 551.727 277.889 491.378C309.593 478.863 342.65 468.359 376.233 459.623C393.538 472.038 412.668 481.7 433.793 487.931C463.96 496.828 488.982 510.458 509.633 527.431C521.717 718.08 389.789 812.202 318.05 836.154L319.95 841.846C392.73 817.545 525.27 723.04 515.951 532.848C550.741 563.952 572.215 604.984 584.602 648.344C604.782 718.982 600.728 795.528 590.758 844.4L596.637 845.6C606.746 796.047 610.881 718.489 590.371 646.696C577.221 600.662 553.891 556.887 515.452 524.463C514.616 512.522 513.227 500.214 511.235 487.532C508.286 468.752 506.854 450.979 506.755 434.171C591.899 422.548 673.591 420.304 738.352 423.496L738.648 417.504C673.827 414.309 592.075 416.527 506.777 428.112C507.806 350.979 537.219 294.614 576.434 254.625C625.222 204.874 689.366 180.3 733.492 172.959L732.508 167.041C687.408 174.543 622.009 199.581 572.15 250.424C531.698 291.674 501.596 349.799 500.767 428.943C459.924 434.692 418.343 442.601 377.485 453.103C324.525 413.989 288.916 347.803 265.759 274.765C235.041 177.88 226.557 69.8976 228.192 0.0701907L222.194 -0.0702515ZM383.914 457.659C399.604 468.316 416.757 476.651 435.491 482.176C464.391 490.699 488.69 503.457 509.032 519.264C508.193 509.258 506.961 498.992 505.308 488.463C502.358 469.683 500.901 451.876 500.761 435.004C462.038 440.481 422.668 447.909 383.914 457.659Z" fill="url(#paint0_linear_827_45)" fill-opacity="0.06"/>
<defs>
<linearGradient id="paint0_linear_827_45" x1="-77.0446" y1="-61.1213" x2="241.901" y2="1116.61" gradientUnits="userSpaceOnUse">
<stop stop-color="#343045"/>
<stop offset="0.151042" stop-color="#C0B7E8"/>
<stop offset="0.760417" stop-color="#8176AF"/>
<stop offset="0.973958" stop-color="#343045"/>
</linearGradient>
</defs>
</svg>
