<svg width="390" height="645" viewBox="0 0 390 645" fill="none" xmlns="http://www.w3.org/2000/svg">
<path fill-rule="evenodd" clip-rule="evenodd" d="M20.1626 -65.0701C18.7821 -6.04776 25.9297 85.1912 51.9074 167.209C70.7574 226.723 99.6941 281.893 142.915 316.09C116.444 323.176 90.3914 331.582 65.3267 341.476C-64.0422 392.544 -167.843 483.644 -165.975 638.036L-159.976 637.964C-161.801 487.133 -60.7131 397.681 67.5298 347.057C93.7979 336.687 121.174 327.963 148.991 320.689C163.664 331.303 179.907 339.559 197.872 344.863C223.122 352.317 244.062 363.742 261.34 377.973C271.094 537.404 160.945 616.111 101.048 636.155L102.952 641.845C163.891 621.452 274.628 542.372 267.639 383.43C296.08 409.336 313.717 443.269 323.95 479.127C340.838 538.304 337.447 602.449 329.101 643.401L334.98 644.599C343.465 602.968 346.937 537.811 329.72 477.48C318.722 438.942 299.235 402.261 267.163 375.016C266.464 364.885 265.291 354.439 263.604 343.673C261.142 327.958 259.943 313.085 259.855 299.02C331.175 289.306 399.594 287.432 453.852 290.107L454.148 284.114C399.832 281.437 331.356 283.285 259.887 292.96C260.956 228.735 285.487 181.777 318.121 148.424C358.927 106.718 412.588 86.1125 449.493 79.9592L448.507 74.0409C410.626 80.3569 355.708 101.428 313.832 144.228C279.964 178.842 254.747 227.556 253.874 293.792C219.541 298.641 184.593 305.309 150.258 314.161C106.455 281.355 76.9052 226.263 57.6274 165.398C31.8998 84.1694 24.7914 -6.37858 26.1609 -64.9298L20.1626 -65.0701ZM156.656 318.724C169.721 327.582 183.994 334.51 199.571 339.108C223.56 346.191 243.776 356.749 260.741 369.82C260.041 361.622 259.027 353.217 257.677 344.601C255.214 328.888 253.991 313.982 253.862 299.853C221.642 304.431 188.896 310.621 156.656 318.724Z" fill="url(#paint0_linear_827_50)"/>
<defs>
<linearGradient id="paint0_linear_827_50" x1="-101.238" y1="111.596" x2="62.9212" y2="717.056" gradientUnits="userSpaceOnUse">
<stop offset="0.0104167" stop-color="#343045"/>
<stop offset="0.229167" stop-color="#C0B7E8"/>
<stop offset="0.776042" stop-color="#8176AF"/>
<stop offset="1" stop-color="#343045"/>
</linearGradient>
</defs>
</svg>
